<svg width="993" height="267" xmlns="http://www.w3.org/2000/svg" version="1.1">
 <!-- Generator: Sketch 61 (89581) - https://sketch.com -->

 <title>a/A Logo Main - Red</title>
 <desc>Created with Sketch.</desc>
 <g>
  <title>Layer 1</title>
  <g fill-rule="evenodd" fill="none" id="a/A-Logo-Main---Red">
   <g fill-rule="nonzero" fill="#D0021B" id="logo-full-red">
    <g id="Group">
     <path id="Shape" d="m330.8,199.9l-6.4,-14.6l-28.4,0l-6.4,14.6l-16.2,0l29.4,-68l14.6,0l29.4,68l-16,0zm-20.5,-47.7l-8.5,19.8l17,0l-8.5,-19.8z"/>
     <path id="Shape" d="m383.8,146.8c6.1,0 11.5,2.5 16.3,7.7c4.8,5 7.2,11.5 7.2,19.2c0,7.7 -2.4,14.2 -7.2,19.3c-4.8,5.2 -10.3,7.8 -16.7,7.8c-6.4,0 -11.5,-2.5 -15.4,-7.7l0,25.8l-14.6,0l0,-71.3l14.6,0l0,5.9c4.5,-4.6 9.8,-6.7 15.8,-6.7zm-16,27.1c0,4.2 1.2,7.7 3.6,10.4c2.4,2.6 5.3,4.1 8.6,4.1c3.4,0 6.4,-1.3 8.9,-4.1c2.5,-2.6 3.8,-6.1 3.8,-10.3c0,-4.2 -1.2,-7.8 -3.7,-10.6c-2.5,-2.9 -5.4,-4.3 -8.9,-4.3c-3.5,0 -6.4,1.4 -8.8,4.2c-2.3,2.8 -3.5,6.3 -3.5,10.6z"/>
     <path id="Shape" d="m448.6,146.8c6.1,0 11.5,2.5 16.3,7.7c4.8,5 7.2,11.5 7.2,19.2c0,7.7 -2.4,14.2 -7.2,19.3c-4.8,5.2 -10.3,7.8 -16.7,7.8c-6.4,0 -11.5,-2.5 -15.4,-7.7l0,25.8l-14.6,0l0,-71.3l14.6,0l0,5.9c4.4,-4.6 9.6,-6.7 15.8,-6.7zm-16,27.1c0,4.2 1.2,7.7 3.6,10.4c2.4,2.6 5.3,4.1 8.6,4.1c3.4,0 6.4,-1.3 8.9,-4.1c2.5,-2.6 3.8,-6.1 3.8,-10.3c0,-4.2 -1.2,-7.8 -3.7,-10.6c-2.5,-2.9 -5.4,-4.3 -8.9,-4.3c-3.5,0 -6.4,1.4 -8.8,4.2c-2.4,2.8 -3.5,6.3 -3.5,10.6z"/>
     <path id="Shape" d="m558.5,199.9l-6.4,-14.6l-28.4,0l-6.4,14.6l-16.2,0l29.4,-68l14.6,0l29.4,68l-16,0zm-20.5,-47.7l-8.5,19.8l17,0l-8.5,-19.8z"/>
     <path id="Path" d="m606.1,187.8c4.9,0 9.2,-2.4 13.1,-7.3l8.6,9.7c-6.7,7 -14,10.6 -21.8,10.6c-7.8,0 -14.5,-2.5 -19.9,-7.4c-5.4,-4.9 -8.2,-11.4 -8.2,-19.4c0,-8 2.8,-14.5 8.2,-19.6c5.5,-5 12,-7.6 19.6,-7.6c3.7,0 7.6,0.7 11.4,2.3c3.8,1.6 7.2,3.8 10.2,7l-7.6,10c-1.7,-2 -3.7,-3.6 -6.1,-4.7c-2.4,-1.1 -4.8,-1.7 -7.2,-1.7c-3.8,0 -7.1,1.2 -9.8,3.7c-2.8,2.5 -4.1,6 -4.1,10.4c0,4.4 1.3,7.9 4.1,10.3c2.7,2.5 5.8,3.7 9.5,3.7z"/>
     <path id="Shape" d="m682.1,199.9l-13.7,0l0,-6.4c-3.7,4.7 -8.4,7.1 -13.9,7.1c-5.5,0 -10.2,-1.6 -13.9,-4.8c-3.7,-3.2 -5.6,-7.4 -5.6,-12.8c0,-5.4 1.9,-9.4 5.9,-12c3.8,-2.6 9.2,-4 16,-4l10.9,0l0,-0.2c0,-5.5 -3,-8.4 -8.9,-8.4c-2.5,0 -5.2,0.5 -8,1.6c-2.9,1 -5.2,2.3 -7.2,3.7l-6.5,-9.5c6.8,-5 14.8,-7.4 23.5,-7.4c6.4,0 11.5,1.6 15.6,4.8c4,3.1 6,8.2 6,15.1l0,33.2l-0.2,0l0,0zm-14.7,-19.9l0,-2.5l-9.1,0c-5.9,0 -8.8,1.8 -8.8,5.4c0,1.9 0.7,3.4 2,4.3c1.4,1 3.4,1.6 6,1.6c2.6,0 4.9,-0.8 6.8,-2.4c2.2,-1.6 3.1,-3.8 3.1,-6.4z"/>
     <path id="Shape" d="m716.4,200.8c-6.2,0 -11.8,-2.6 -16.6,-7.9c-4.9,-5.3 -7.3,-11.8 -7.3,-19.6c0,-7.8 2.4,-14.2 7.1,-19.1c4.7,-4.9 10.3,-7.4 16.7,-7.4c6.4,0 11.5,2.3 15.6,6.7l0,-25.7l14.5,0l0,72.1l-14.6,0l0,-7c-4.1,5.2 -9.3,7.9 -15.4,7.9zm-9.2,-26.9c0,4.2 1.3,7.7 3.8,10.3c2.5,2.6 5.5,4.1 8.9,4.1c3.4,0 6.2,-1.3 8.6,-4.1c2.4,-2.6 3.6,-6.1 3.6,-10.4c0,-4.2 -1.2,-7.8 -3.6,-10.6c-2.4,-2.9 -5.3,-4.2 -8.8,-4.2c-3.5,0 -6.4,1.4 -8.9,4.3c-2.3,2.8 -3.6,6.4 -3.6,10.6z"/>
     <path id="Shape" d="m805.6,192.4c-5.9,5.5 -12.8,8.4 -20.8,8.4c-8,0 -14.5,-2.4 -19.7,-7.3c-5.2,-4.9 -7.8,-11.4 -7.8,-19.7c0,-8.3 2.6,-14.8 7.9,-19.7c5.3,-4.9 11.5,-7.3 18.7,-7.3c7.2,0 13.3,2.2 18.4,6.5c5,4.3 7.6,10.3 7.6,17.9l0,7.8l-38.2,0c0.5,2.9 1.9,5.2 4.4,7c2.5,1.8 5.4,2.8 8.5,2.8c5.2,0 9.4,-1.7 12.6,-5.2l8.4,8.8zm-14.1,-31.1c-2,-1.7 -4.4,-2.5 -7.3,-2.5c-2.9,0 -5.5,0.8 -7.9,2.6c-2.4,1.8 -3.8,4.1 -4.2,7.1l22.9,0c-0.4,-3.1 -1.4,-5.5 -3.5,-7.2z"/>
     <path id="Path" d="m868.3,171.7l0,28.2l-14.6,0l0,-28.6c0,-4.2 -0.6,-7.2 -1.9,-9.1c-1.3,-1.9 -3.4,-2.9 -6.1,-2.9c-2.9,0 -5.3,1.1 -7.4,3.1c-2.2,2.2 -3.2,5.2 -3.2,9.2l0,28.2l-14.6,0l0,-52.3l14.5,0l0,5.9c4,-4.6 8.6,-6.8 13.8,-6.8c3.4,0 6.4,1 9,2.9c2.6,1.9 4.7,4.3 6.1,7.1c2,-3.1 4.7,-5.6 8.2,-7.4c3.4,-1.8 6.8,-2.6 10.3,-2.6c6.1,0 11.2,1.8 14.9,5.5c3.7,3.7 5.6,9 5.6,16l0,31.8l-14.9,0l0,-28.4c0,-8 -3,-12.1 -8.9,-12.1c-2.9,0 -5.4,1.1 -7.6,3.1c-2.1,2 -3.2,5.1 -3.2,9.2z"/>
     <path id="Path" d="m925,220.6c-5.2,0 -10,-2 -14.5,-6.2l6.6,-10.8c2.5,2.4 5,3.6 7.6,3.6c1.3,0 2.5,-0.7 3.5,-2c1,-1.3 1.4,-2.8 1.4,-4.2c0,-1.4 -6.7,-19.2 -20.3,-53.3l15.6,0l12.7,32.6l12.8,-32.6l15.6,0l-24.4,61.7c-1.4,3.6 -3.6,6.4 -6.7,8.3c-2.9,1.9 -6.2,2.9 -9.9,2.9z"/>
    </g>
    <g id="Group">
     <path id="Shape" d="m122,287c-63.9,0 -116,-52 -116,-116c0,-64 52.1,-116 116,-116c63.9,0 116,52.1 116,116c0,63.9 -52,116 -116,116zm0,-219.1c-56.8,0 -103,46.2 -103,103c0,56.8 46.2,103 103,103c56.8,0 103,-46.2 103,-103c0,-56.7 -46.2,-103 -103,-103z"/>
     <path id="Shape" d="m99.6,121.6c-4.7,-7.7 -13.6,-12 -24.8,-12c-10.1,0 -18.8,3.4 -25.1,9.8l-1.3,1.3l7.8,10.1l1.7,-1.8c5.5,-5.8 13.2,-6.6 17.3,-6.6c5.5,0 9.1,1.8 11.2,5.3c1.8,3 1.3,6.7 1.3,10l0,0.5l-0.8,0c-8.4,0 -18.8,0 -27.4,3c-12.2,4.4 -16.5,13.6 -16.5,20.7c0,10.1 8,20.8 23.8,20.8c7.4,0 13.7,-2.4 20.9,-6.7l0,5.3l15.6,0l0,-43c0,-5.9 -0.5,-11.3 -3.7,-16.7zm-30.6,48.8c-7.7,0 -11.4,-4.7 -11.4,-9.2c0,-1.9 0.7,-4 2.4,-5.8c1.6,-1.8 4.1,-3.5 7.8,-4.3c3.7,-0.8 9.1,-1.1 13.1,-1.1c1.4,0 7,0.1 7,0.1l0,3.6c-0.2,11.4 -11.1,16.7 -18.9,16.7z"/>
     <rect height="163.0968" width="12.99974" y="205.31102" x="231.52464" transform="rotate(-160.53 122.012 170.93) translate(-116.012 -115.93)" id="Rectangle"/>
     <path id="Shape" d="m164.5,138.1l-4.1,0l-30.7,87.6l13.8,0l8,-25.2l23.2,0l9.1,25.2l14.3,0l-33.6,-87.6zm-9.7,51.6l7.7,-22.9l8.5,22.9l-16.2,0z"/>
    </g>
   </g>
  </g>
  <line stroke-linecap="undefined" stroke-linejoin="undefined" id="svg_1" y2="104" x2="495.5" y1="246" x1="254.5" stroke="#000" fill="none"/>
  <text transform="rotate(-16.9806 365.489 84.2623) matrix(3.81965 0 0 3.29447 -967.855 -57.5731)" stroke="#000" xml:space="preserve" text-anchor="start" font-family="Noto Sans JP" font-size="24" stroke-width="0" id="svg_6" y="51.04314" x="315.07573" fill="#000000">HACK</text>
  <path d="m299.5,158c-2,-3 -4.43463,-7.15099 -7,-9c-0.81125,-0.58472 -2,0 -16,0c-6,0 -8.82272,-1.61679 -10,0c-19.17381,26.33182 14.49622,45.90779 15,50c0.36655,2.97752 0.11301,5.46181 1,5c10.82697,-5.63712 13,-22 13,-24c0,-2 0,-5 0,-14l0,-17l0,-3l0,-1" id="svg_8" stroke-width="0" stroke="#000" fill="none"/>
  <path d="m291.5,145c-13,15 -22.49347,35.87856 -23,39c-0.16019,0.98709 1.75531,-0.132 4,-4c1.80972,-3.11848 4.34619,-5.70546 6,-8c2.6149,-3.62799 3.33798,-7.11275 4,-9c2.11948,-6.04218 8.84796,-13.0797 11,-17c5.61182,-10.22289 7,-12 7,-13c0,-1 3.22687,-5.79542 -1,-16c-2.98886,-7.21573 -13.15085,-10.12256 -18,-4c-5.55322,7.01153 -5,13 -5,15l0,2l0,2" id="svg_9" stroke-width="0" stroke="#000" fill="none"/>
  <path d="m283.5,148c5,6 11.44351,14.38063 13,20c0.80081,2.89114 0,4 0,7c0,1 0,14 0,17c0,2 0.22977,2.97325 0,2c-1.54123,-6.52875 -3,-13 -3,-17c0,-3 0,-5 0,-6l0,0" id="svg_10" stroke-width="0" stroke="#000" fill="none"/>
  <path d="m252.5,107c7,16 13.19028,24.88152 15,28c1.12234,1.93399 4.5687,5.78275 7,13c1.31628,3.90735 1.91232,5.03067 3,8c1.85226,5.05659 2,8 6,14c2,3 4.5545,8.34741 14,20c6.69379,8.25792 9.62222,9.35057 18,18c10.86777,11.22014 13,16 14,18l0,1l0,-2" id="svg_12" stroke-width="0" stroke="#000" fill="none"/>
  <path d="m263.5,130c6,8 14.96527,21.02678 25,34c6.97592,9.01868 12.25064,16.82724 21,24c5.57666,4.57176 9.68469,7.12685 15,12c4.71973,4.32713 6.34619,6.70546 8,9c1.30746,1.814 4.67966,-0.50597 0,-13c-5.96286,-15.91994 -16.37128,-29.59218 -23,-36c-4.60376,-4.45033 -9.24042,-8.33781 -12,-15c-1.95132,-4.71088 54,-14 -2,-6l0,8l0,3" id="svg_13" stroke-width="0" stroke="#000" fill="none"/>
  <line id="svg_14" y2="249" x2="500.5" y1="96" x1="250.5" stroke="#000" fill="none"/>
  <text transform="matrix(1.82225 0 0 1.649 -41.7678 -81.8197)" stroke="#000" xml:space="preserve" text-anchor="start" font-family="Noto Sans JP" font-size="64" id="svg_15" y="140.54215" x="50.08527" stroke-width="0" fill="#000000">H</text>
  <line id="svg_16" y2="123" x2="113.5" y1="168" x1="34.5" stroke="#000" fill="none"/>
  <line id="svg_17" y2="172" x2="98.5" y1="100" x1="32.5" stroke="#000" fill="none"/>
  <path d="m79.5,152c-2,1 -15.96474,-7.43217 -34,-11c-4.90494,-0.97032 -12,-3 -12,0c0,1 7.09222,4.53056 13,7c15.79306,6.60147 34.69344,4.4588 36,5c2.77164,1.14806 3.28979,-0.95709 3,0c-1.04483,3.45085 8.44966,7.17293 16,10c4.77525,1.78799 7.58578,2.41422 9,1c1.41422,-1.41422 0.26126,-8.01381 -8,-17c-10.57178,-11.49945 -23,-18 -26,-20l-2,-1l-2,0l-3,8" id="svg_18" stroke-width="0" stroke="#000" fill="none"/>
  <path d="m58.5,151c-4,-1 -7,-1 -9,-1c-1,0 -0.07681,-1.26915 6,-1c27.86533,1.23421 39.133,11.5695 43,13c2.09718,0.7758 4.47427,1.85065 5,1c2.35114,-3.80423 -11.69191,-13.48676 -32,-26c-11.82747,-7.28773 -16.87856,-11.49346 -20,-12c-1.97417,-0.32037 -3.26078,0.59113 3,3c17.43551,6.70844 25.90778,8.49623 30,9c3.97003,0.48874 6.61732,0.92387 7,0c0.5412,-1.30656 -2,-3 -2,-5c0,-2 8.8176,-7.43861 18,-11c5.89658,-2.28698 10,0 10,-2c0,-1 -6,0 -18,-2l-10,-2" id="svg_19" stroke-width="0" stroke="#000" fill="none"/>
  <path d="m100.5,86c-2,6 -7.86684,13.27406 -20,19c-8.90684,4.20335 -16.50424,6.03551 -21,9c-5.90322,3.89256 -12.47343,15.77191 -20,32c-3.20432,6.90886 -4.53899,14.11499 -7,23c-1.68824,6.09506 -2.4588,9.69344 -3,11c-1.14805,2.77164 0,7 0,9c0,2 -1,2 -2,0l-2,-7l0,-2" id="svg_20" stroke-width="0" stroke="#000" fill="none"/>
  <path d="m70.5,133c17,-26 30.11214,-42.9183 33,-47c2.08247,-2.94335 3,-3 2,-2c-2,2 -3,3 -5,5l-2,2l-1,1l-2,2" id="svg_21" stroke-width="0" stroke="#000" fill="none"/>
  <path d="m71.5,93c0,5 2.45978,13.84235 5,22c1.22585,3.93666 2.99594,8.86484 4,20c0.98786,10.95555 0,18 0,22c0,2 0,4 0,7c0,1 -1,5 -1,7c0,2 0,4 -1,4l-1,0l-3,-2l-4,-5" id="svg_22" stroke-width="0" stroke="#000" fill="none"/>
  <path d="m49.5,91c1,2 2.52221,5.38074 5,8c3.43608,3.63227 5.70546,7.34619 8,9c1.814,1.30745 5.29362,5.72651 9,10c3.27601,3.77727 5.54136,7.70267 7,11c1.66801,3.77065 2.74639,8.16119 6,13c2.78995,4.14925 6.47546,8.86194 8,15c1.46626,5.9034 4.46873,10.53976 6,18c0.80426,3.9183 1,6 1,8c0,1 0,2 0,3l0,-1l0,-4l-1,-4" id="svg_23" stroke-width="0" stroke="#000" fill="none"/>
  <path d="m21.5,171c1,-2 3.8691,-5.13533 8,-9c7.76262,-7.26234 17.85076,-14.21005 22,-17c4.83881,-3.2536 10.02875,-9.24913 20,-16c5.55484,-3.76081 9.77061,-5.25935 12,-7c4.59599,-3.58844 9.22273,-5.72399 13,-9c3.20512,-2.77979 6,-5 7,-6c1,-1 2,-4 15,-21l5,-6l1,-2l0,-1" id="svg_24" stroke-width="0" stroke="#000" fill="none"/>
  <line id="svg_25" y2="93" x2="68.5" y1="197" x1="74.5" stroke="#000" fill="none"/>
  <line id="svg_26" y2="148" x2="128.5" y1="142" x1="35.5" stroke="#000" fill="none"/>
  <line transform="rotate(90.2213 63.5 149.5)" id="svg_27" y2="108" x2="87.5" y1="191" x1="39.5" stroke="#000" fill="none"/>
  <path d="m47.5,113c5,5 13.70848,10.67262 20,13c3.867,1.4305 6.186,2.69255 8,4c2.29454,1.65381 4,2 7,2c1,0 5.89811,2.39902 13,4c5.93385,1.33768 9.96384,2.11586 13,3c3.95868,1.15277 7,1 9,1l0,0" id="svg_28" stroke-width="0" stroke="#000" fill="none"/>
  <path d="m44.5,178c2,-4 4.67738,-8.34099 11,-14c4.77115,-4.27039 8.38688,-8.9176 11,-10c1.84776,-0.76537 5.72962,-3.22885 10,-8c3.77267,-4.21509 7.11509,-6.89685 8,-8c8.15849,-10.1705 14.48626,-21.82375 15,-24c0.4595,-1.9465 3,-8 5,-11l1,-2" id="svg_29" stroke-width="0" stroke="#000" fill="none"/>
  <line id="svg_30" y2="182" x2="219.5" y1="298" x1="152.5" stroke="#000" fill="none"/>
  <line id="svg_31" y2="136" x2="122.5" y1="116" x1="48.5" stroke="#000" fill="none"/>
  <line id="svg_32" y2="159" x2="117.5" y1="136" x1="25.5" stroke="#000" fill="none"/>
  <line id="svg_33" y2="159" x2="122.5" y1="162" x1="42.5" stroke="#000" fill="none"/>
  <line id="svg_34" y2="147" x2="115.5" y1="173" x1="28.5" stroke="#000" fill="none"/>
  <line id="svg_35" y2="175" x2="96.5" y1="115" x1="47.5" stroke="#000" fill="none"/>
  <line id="svg_36" y2="121" x2="133.5" y1="175" x1="36.5" stroke="#000" fill="none"/>
  <line id="svg_37" y2="93" x2="75.5" y1="195" x1="65.5" stroke="#000" fill="none"/>
 </g>
</svg>